<?xml version="1.0" standalone="no"?>
<!DOCTYPE svg PUBLIC "-//W3C//DTD SVG 20010904//EN"
 "http://www.w3.org/TR/2001/REC-SVG-20010904/DTD/svg10.dtd">
<svg version="1.0" xmlns="http://www.w3.org/2000/svg"
 width="1280.000000pt" height="833.000000pt" viewBox="0 0 1280.000000 833.000000"
 preserveAspectRatio="xMidYMid meet">
<g transform="translate(0.000000,833.000000) scale(0.100000,-0.100000)"
fill="#000000" stroke="none">
<path d="M6346 8217 c-257 -433 -607 -1069 -694 -1262 -70 -155 -149 -350
-202 -497 -24 -65 -48 -118 -54 -118 -6 0 -51 35 -101 77 -188 160 -488 370
-710 498 -237 137 -719 354 -740 334 -2 -3 -9 -36 -14 -75 -50 -356 -38 -1016
24 -1323 18 -90 19 -111 2 -111 -8 0 -56 19 -108 41 -214 94 -546 213 -954
344 -266 85 -609 185 -635 185 -13 0 -20 -14 -29 -57 -32 -166 -22 -343 26
-476 29 -82 101 -199 135 -221 13 -8 77 -35 143 -61 246 -96 517 -238 633
-332 24 -20 46 -33 48 -30 7 6 -46 152 -88 245 -28 65 -34 92 -20 92 14 0 271
-96 454 -169 666 -266 1351 -615 1816 -926 52 -35 99 -62 103 -59 4 2 13 30
19 62 25 120 216 605 321 814 63 126 318 590 444 808 179 312 229 391 244 388
22 -5 304 -492 586 -1013 151 -279 295 -615 395 -920 23 -71 46 -134 51 -139
4 -5 68 30 146 81 430 280 850 501 1393 733 344 147 876 338 893 321 4 -4 -40
-105 -99 -225 -58 -119 -104 -219 -101 -222 3 -3 41 23 85 58 115 90 312 206
577 338 l230 115 53 70 c107 143 198 358 241 572 24 114 26 153 10 153 -20 0
-465 -119 -760 -204 -515 -148 -880 -266 -1065 -345 -38 -16 -73 -26 -77 -22
-4 4 -3 28 2 53 78 345 93 854 40 1351 -9 85 -15 107 -27 107 -23 0 -269 -100
-412 -168 -365 -172 -778 -443 -1067 -699 -40 -36 -78 -63 -84 -61 -6 2 -37
75 -68 163 -120 337 -221 551 -475 1012 -261 475 -454 803 -471 803 -5 0 -32
-38 -59 -83z"/>
<path d="M6386 5642 c-115 -182 -506 -879 -618 -1102 -117 -231 -255 -583
-338 -855 -98 -327 -147 -604 -157 -885 -11 -354 43 -628 178 -891 141 -272
365 -491 654 -638 113 -56 274 -121 304 -121 33 0 191 60 291 110 187 94 363
228 487 371 477 549 491 1410 42 2527 -39 97 -99 236 -133 307 -92 193 -422
790 -589 1065 -103 170 -91 159 -121 112z"/>
<path d="M80 5483 c89 -67 240 -232 310 -338 161 -245 265 -495 384 -926 50
-183 96 -301 196 -504 308 -629 787 -1102 1435 -1420 362 -177 712 -285 1098
-339 46 -6 47 5 2 40 -55 41 -170 178 -247 293 -193 288 -315 674 -369 1171
-15 135 -16 650 -1 785 8 75 7 94 -6 115 -8 14 -69 79 -136 145 -196 195 -420
352 -708 495 -434 216 -988 380 -1563 465 -147 21 -355 45 -395 44 l-35 0 35
-26z"/>
<path d="M12515 5494 c-433 -51 -880 -151 -1254 -279 -529 -182 -929 -413
-1227 -710 -162 -161 -156 -151 -142 -260 15 -126 15 -643 0 -785 -67 -600
-220 -1014 -495 -1338 -39 -46 -90 -99 -114 -119 -71 -59 -70 -59 147 -22 507
87 1052 321 1464 629 401 299 690 646 911 1095 107 218 172 386 216 559 120
477 309 856 544 1092 55 55 116 112 135 127 l35 26 -50 -1 c-27 0 -104 -7
-170 -14z"/>
<path d="M3120 4696 c0 -2 11 -24 25 -47 13 -24 32 -77 41 -118 18 -78 18 -89
-2 -772 -15 -500 56 -886 236 -1289 118 -264 249 -458 435 -646 278 -280 583
-423 990 -465 174 -18 433 1 588 42 l38 10 -70 66 c-237 219 -386 562 -443
1023 -20 162 -16 581 7 765 23 184 23 196 -9 273 -80 198 -301 416 -628 622
-151 95 -556 295 -763 377 -174 70 -445 166 -445 159z"/>
<path d="M9490 4641 c-357 -126 -712 -289 -983 -450 -365 -217 -606 -451 -687
-668 -24 -64 -24 -84 -4 -233 24 -179 29 -575 10 -752 -30 -281 -84 -493 -176
-686 -68 -143 -128 -229 -237 -343 -52 -53 -90 -100 -85 -103 5 -3 62 -15 128
-27 170 -32 459 -32 626 -1 553 104 948 424 1240 1005 145 289 237 622 269
966 11 131 9 426 -7 896 -8 208 3 292 46 384 25 53 27 61 12 60 -9 0 -78 -22
-152 -48z"/>
<path d="M850 2925 c-354 -51 -645 -159 -785 -290 l-40 -37 65 -60 c132 -121
370 -261 588 -348 45 -18 82 -37 82 -44 -1 -6 -38 -37 -85 -69 -110 -77 -253
-204 -333 -295 -35 -41 -62 -75 -60 -77 2 -2 45 2 97 8 69 7 147 7 280 -1 229
-15 405 -32 422 -42 8 -6 -25 -48 -105 -137 -112 -122 -266 -315 -266 -332 0
-19 327 -95 567 -132 197 -30 632 -38 823 -15 210 26 500 91 633 141 34 14 16
-20 -54 -105 -118 -142 -159 -179 -239 -220 -81 -41 -220 -90 -313 -111 -32
-7 -60 -16 -63 -20 -5 -9 59 -30 211 -68 652 -162 1472 -158 2338 14 98 19
188 37 201 41 19 4 33 -8 93 -83 171 -217 432 -402 718 -508 262 -98 635 -152
860 -126 335 40 474 71 680 153 307 121 528 287 743 558 l20 24 213 -42 c582
-115 908 -147 1434 -139 356 5 464 14 720 58 208 35 455 100 455 118 0 5 -19
12 -42 16 -62 10 -265 78 -329 110 -30 15 -69 38 -87 52 -48 36 -235 264 -225
274 5 5 56 -7 113 -25 123 -40 288 -78 450 -103 164 -26 690 -26 865 0 209 31
584 113 603 132 15 15 -116 184 -273 351 -78 83 -101 115 -92 122 34 28 660
60 760 39 24 -5 37 -4 37 2 0 17 -198 218 -280 283 -41 34 -103 80 -137 102
-35 23 -63 46 -63 52 0 6 48 30 108 54 139 55 284 130 393 205 99 68 227 175
228 191 2 24 -108 108 -208 159 -133 67 -387 138 -602 170 -171 24 -172 24
-208 -37 -50 -89 -158 -215 -321 -378 -342 -343 -640 -550 -965 -673 -373
-140 -821 -205 -1121 -161 -40 6 -42 5 -78 -45 -77 -104 -344 -302 -557 -411
-256 -131 -541 -220 -853 -266 -154 -22 -441 -30 -517 -14 -62 13 -63 13 -78
-11 -73 -116 -251 -202 -521 -251 -157 -29 -499 -31 -670 -4 -304 47 -512 115
-624 205 l-39 31 -188 0 c-112 0 -236 6 -306 15 -417 55 -795 203 -1102 433
-101 75 -254 224 -289 279 l-27 45 -55 -9 c-87 -13 -364 -7 -500 11 -260 35
-570 124 -789 227 -230 108 -491 308 -776 594 -207 206 -281 293 -334 387 -25
46 -27 48 -71 47 -25 -1 -83 -7 -130 -14z"/>
</g>
</svg>
